<svg width="94" height="28" viewBox="0 0 94 28" fill="none" xmlns="http://www.w3.org/2000/svg">
<path d="M21.0583 6.86871V15.5332C21.0583 15.6737 21.0025 15.8084 20.9032 15.9077C20.8039 16.007 20.6692 16.0628 20.5287 16.0628H17.7935C17.6531 16.0627 17.5185 16.0069 17.4192 15.9076C17.3199 15.8083 17.264 15.6737 17.264 15.5332V1.43995C17.264 1.2995 17.3198 1.1648 17.4191 1.06549C17.5184 0.966178 17.6531 0.910385 17.7935 0.910385H20.3246C20.4651 0.910385 20.5998 0.966178 20.6991 1.06549C20.7984 1.1648 20.8542 1.2995 20.8542 1.43995V3.42466C20.8542 3.42466 21.759 0.593532 24.4442 0.593532C24.4442 0.593532 27.1002 0.272477 28.1801 3.22035C28.1801 3.22035 29.0849 0.593532 31.8285 0.593532C31.8285 0.593532 35.9085 0.350931 35.9085 4.57275L35.9396 6.89789V15.5624C35.9396 15.7029 35.8838 15.8376 35.7845 15.9369C35.6852 16.0362 35.5505 16.092 35.41 16.092H32.6746C32.5342 16.0919 32.3995 16.0361 32.3002 15.9368C32.2009 15.8375 32.1451 15.7028 32.1451 15.5624L32.1201 6.10985C32.1978 3.9694 30.4662 4.12514 30.4662 4.12514C28.287 4.16413 28.4967 6.89789 28.4967 6.89789V15.5624C28.4967 15.7029 28.4409 15.8376 28.3416 15.9369C28.2423 16.0362 28.1076 16.092 27.9672 16.092H25.232C25.0916 16.0919 24.9569 16.0361 24.8576 15.9368C24.7583 15.8375 24.7025 15.7028 24.7024 15.5624V6.32373C24.7024 6.32373 24.8624 4.10553 22.9164 4.10553C22.9167 4.10553 20.9903 3.85265 21.0583 6.86871ZM91.5632 6.84279V15.5071C91.5631 15.6475 91.5073 15.7822 91.408 15.8815C91.3087 15.9808 91.1741 16.0366 91.0336 16.0366L88.189 16.0918C88.0485 16.0917 87.9139 16.0359 87.8146 15.9366C87.7153 15.8373 87.6595 15.7026 87.6594 15.5622V6.32373C87.6594 6.32373 87.8194 4.10553 85.8736 4.10553C85.8736 4.10553 84.0153 4.014 84.0153 7.4919V15.533C84.0152 15.6734 83.9594 15.8081 83.8601 15.9074C83.7608 16.0067 83.6261 16.0625 83.4857 16.0626H80.7503C80.6099 16.0625 80.4752 16.0067 80.3759 15.9074C80.2766 15.8081 80.2208 15.6734 80.2207 15.533V1.43995C80.2208 1.29952 80.2766 1.16486 80.3759 1.06556C80.4752 0.96626 80.6099 0.910446 80.7503 0.910385H83.2814C83.4218 0.910385 83.5565 0.966178 83.6558 1.06549C83.7551 1.1648 83.8109 1.2995 83.8109 1.43995V3.42466C83.8109 3.42466 84.7157 0.593532 87.4009 0.593532C87.4009 0.593532 90.2774 0.157131 91.2461 3.16548C91.2464 3.16524 91.5632 3.78587 91.5632 6.84279ZM71.8142 0.535158C68.3165 0.535158 65.4807 3.48303 65.4807 8.4448C65.4807 12.8132 67.6697 16.3544 71.8142 16.3544C75.7253 16.3544 78.1478 12.8132 78.1478 8.4448C78.1478 3.57059 75.3122 0.535158 71.8142 0.535158ZM74.0219 8.61992C74.0219 10.4879 73.7884 11.4802 73.7884 11.4802C73.4562 13.4549 72.0227 13.4577 71.8114 13.4472C71.5833 13.4563 70.1377 13.4357 69.8386 11.4802C69.8386 11.4802 69.6051 10.4879 69.6051 8.61992V8.30867C69.6051 6.44071 69.8386 5.44836 69.8386 5.44836C70.1377 3.49284 71.5835 3.47229 71.8114 3.48116C72.0227 3.47066 73.4562 3.47322 73.7884 5.44836C73.7884 5.44836 74.0219 6.44071 74.0219 8.30867V8.61992ZM63.8931 3.40504V1.38298C63.8931 1.24255 63.8373 1.10789 63.738 1.00859C63.6387 0.909287 63.504 0.853474 63.3636 0.853412H54.3226C54.1822 0.853412 54.0475 0.909205 53.9482 1.00852C53.8489 1.10783 53.7931 1.24253 53.7931 1.38298V3.3894C53.7931 3.52983 53.849 3.66449 53.9483 3.76379C54.0476 3.86309 54.1822 3.9189 54.3226 3.91897H59.0385L53.4566 12.0166C53.4566 12.0166 53.2367 12.3449 53.2439 12.7075V15.1706C53.2439 15.1706 53.2075 16.0152 54.1653 15.5251C54.1653 15.5251 55.8665 14.4972 58.7191 14.4972C58.7191 14.4972 61.5362 14.4622 63.4145 15.6136C63.4145 15.6136 64.1941 15.968 64.1941 15.1886V13.0446C64.1941 13.0446 64.2649 12.4773 63.5207 12.123C63.5207 12.123 61.359 10.936 58.5242 11.1307L63.8931 3.40504ZM15.153 13.5425L14.2967 12.2391C14.0242 11.7525 14.0439 11.2075 14.0439 11.2075V5.19525C14.1606 -1.18315e-05 8.40099 0.447598 8.40099 0.447598C3.28091 0.447598 2.52462 4.43219 2.52462 4.43219C2.31121 5.23331 2.93184 5.25269 2.93184 5.25269L5.43373 5.5065C5.43373 5.5065 5.86033 5.6041 6.0156 5.09625C6.0156 5.09625 6.34506 3.35788 8.18757 3.35788C10.1924 3.35788 10.1716 5.0785 10.1716 5.0785V6.51893C6.16948 6.65272 4.31483 7.76369 4.31483 7.76369C1.84375 9.16466 1.99926 11.9472 1.99926 11.9472C1.99926 16.4808 6.31891 16.286 6.31891 16.286C9.08186 16.286 10.7163 14.2626 10.7163 14.2626C11.2027 15.119 12.0979 15.9358 12.0979 15.9358C12.5458 16.4214 13.0125 16.0138 13.0125 16.0138L15.0362 14.2822C15.4836 13.9511 15.153 13.5425 15.153 13.5425ZM7.66735 13.4864C6.36771 13.4864 5.88461 12.195 6.10036 10.9257C6.31634 9.6564 7.43805 8.65891 10.1718 8.6881V9.4598C10.2687 12.831 8.74913 13.4864 7.66735 13.4864ZM51.5002 13.5425L50.6442 12.2391C50.3717 11.7525 50.3911 11.2075 50.3911 11.2075V5.19525C50.5078 -1.18315e-05 44.7482 0.447598 44.7482 0.447598C39.6281 0.447598 38.8718 4.43219 38.8718 4.43219C38.6584 5.23331 39.279 5.25269 39.279 5.25269L41.7809 5.5065C41.7809 5.5065 42.2075 5.6041 42.3628 5.09625C42.3628 5.09625 42.6923 3.35788 44.5348 3.35788C46.5396 3.35788 46.5188 5.0785 46.5188 5.0785V6.51893C42.5169 6.65272 40.662 7.76369 40.662 7.76369C38.191 9.16466 38.3465 11.9472 38.3465 11.9472C38.3465 16.4808 42.6661 16.286 42.6661 16.286C45.4291 16.286 47.0635 14.2626 47.0635 14.2626C47.5501 15.119 48.4449 15.9358 48.4449 15.9358C48.8927 16.4214 49.3597 16.0138 49.3597 16.0138L51.3832 14.2822C51.8308 13.9511 51.5002 13.5425 51.5002 13.5425ZM44.0146 13.4864C42.7149 13.4864 42.2318 12.195 42.4476 10.9257C42.6636 9.6564 43.7853 8.65891 46.5188 8.6881V9.4598C46.6159 12.831 45.0966 13.4864 44.0146 13.4864Z" fill="black"/>
<path d="M58.3871 24.9225C58.3871 24.9225 58.1583 25.3206 58.4394 25.4096C58.4394 25.4096 58.757 25.5336 59.153 25.1661C59.153 25.1661 62.0411 22.6432 62.1107 18.0499C62.1107 18.0499 62.1319 17.4762 61.9017 17.3192C61.9017 17.3192 60.9969 16.5188 57.7434 16.7624C57.7434 16.7624 54.9074 16.9538 53.3591 18.3284C53.3591 18.3284 53.2199 18.4501 53.2199 18.6065C53.2199 18.6065 53.1865 18.9444 54.0376 18.798C54.0376 18.798 56.8734 18.3975 58.5611 18.6065C58.5611 18.6065 59.4313 18.7109 59.6749 19.0069C59.6749 19.0069 60.0751 19.3376 59.8661 20.4334C59.8661 20.4338 59.2917 23.2176 58.3871 24.9225Z" fill="black"/>
<path d="M57.8154 20.5158C57.8154 20.5158 58.2389 21.0645 57.5555 21.5378C57.5555 21.5378 50.2548 27.3775 37.9963 27.3775C37.9963 27.3775 25.3778 28 14.8413 18.4267C14.8413 18.4267 14.472 18.1024 14.7013 17.8009C14.7013 17.8009 14.9063 17.5235 15.437 17.8252C15.437 17.8252 25.3486 24.0014 38.366 24.0014C38.366 24.0014 47.4139 24.3516 56.6953 20.3822C56.6953 20.3822 57.4348 19.9991 57.8154 20.5158Z" fill="black"/>
</svg>
