<svg width="113" height="30" viewBox="0 0 113 30" fill="none" xmlns="http://www.w3.org/2000/svg">
<g clip-path="url(#clip0_4001_12938)">
<path fill-rule="evenodd" clip-rule="evenodd" d="M21.0503 9.07229C20.6853 8.76826 20.2594 8.46422 19.8335 8.34235L19.1035 22.636L22.6314 12.783C22.9964 11.2615 22.1452 9.98441 21.0503 9.07229ZM15.2113 8.22048L17.2793 22.4532L19.3473 8.22048C18.1305 7.79521 16.55 7.73427 15.2113 8.22048ZM13.5083 9.07229C12.3525 9.98504 11.5622 11.2621 11.8663 12.722L15.3941 22.575L14.7251 8.34235C14.2992 8.46422 13.8124 8.76826 13.5083 9.07229ZM6.33201 10.4103C8.70402 14.5463 11.137 19.0465 13.448 22.9997C12.6572 19.5334 11.806 13.7554 10.5898 12.1127C9.19022 10.1666 6.33201 10.4103 6.33201 10.4103ZM2.13514 12.4783L11.8053 23.7302L5.84517 10.4713C4.26404 10.5316 2.92538 11.3231 2.13514 12.4783ZM22.3883 15.5193L20.8072 23.2428C22.8751 19.6552 24.9431 16.1274 26.9501 12.4783C25.0034 12.6605 23.0573 13.3904 22.3883 15.5193ZM27.4973 12.4783L22.3883 23.9124L31.3901 14.1203C30.3561 13.0254 29.0175 12.5392 27.4973 12.4783ZM0.858049 17.5873C4.02094 20.0196 7.18319 22.5141 10.3461 24.9464L1.8311 12.9042C1.04022 14.2422 0.797114 15.8233 0.858049 17.5873ZM32.4844 15.5193C32.2974 15.1381 32.051 14.7891 31.7544 14.4853L23.9694 25.0676C27.019 22.7998 30.0203 20.4677 32.9712 18.0728C33.0322 17.1607 32.9103 16.2493 32.4844 15.5193ZM0.918349 22.5141L9.12929 26.2838C6.39231 23.5474 3.65533 20.9317 0.918349 18.2557V22.5141ZM32.9712 22.7572V18.8644L25.1862 26.4679C27.8622 25.2498 30.2952 24.0337 32.9712 22.7572ZM0.858049 26.2838C3.35193 26.8316 6.0889 27.5012 8.33904 27.9874L0.858049 23.0606V26.2838ZM32.9712 26.4672V23.4871C30.6602 25.0073 28.2272 26.5282 26.0983 28.0484L32.9712 26.4672ZM0.858049 29.9945H8.15624L0.858049 26.8925V29.9945ZM32.9712 29.9945V27.1356C30.5992 28.1696 28.5313 29.0214 26.2811 29.9945H32.9712Z" fill="black"/>
<path fill-rule="evenodd" clip-rule="evenodd" d="M30.4773 8.70731C30.5986 4.3892 24.1522 4.32826 24.2741 8.70731C24.2131 12.7214 30.6601 12.9042 30.4773 8.70731ZM9.73735 6.45717C9.92015 2.07813 3.16847 2.26093 3.41221 6.45717C3.1691 10.8362 10.1633 10.8971 9.73735 6.45717ZM17.2793 7.30835C19.8335 7.36928 20.8071 5.54442 20.8674 3.78049C20.9893 1.10444 19.2863 0.00952148 17.2793 0.00952148C15.2722 0.00952148 13.6911 1.16538 13.7514 3.78049C13.8124 5.24101 14.4204 7.24741 17.2793 7.30835ZM53.8934 17.4051H55.2923V9.31538H53.8934V17.4051ZM51.2173 15.0934L52.0082 17.4051H53.4675L50.6695 9.31538H48.9063L46.5342 16.1883L44.2232 13.2685L47.3251 9.31538H45.6824L42.8236 13.1466V9.31538H41.4246V17.4051H42.8236V13.4513L45.8037 17.4051H47.4457L48.2366 15.0934H51.2173ZM49.6965 10.5925L50.8517 13.9382H48.6016L49.6965 10.5925ZM64.0498 27.7443L62.6515 21.8444H60.1569V29.9944H61.5565V23.0606L63.3205 29.9944H64.7797L66.5436 23.0606V29.9944H67.881V21.8444H65.5097L64.0498 27.7443ZM71.4102 21.8444L68.6123 29.9944H70.0106L70.7405 27.6231H73.7206L74.5115 29.9944H75.9707L73.1728 21.8444H71.4102ZM71.1049 26.5281L72.1998 23.1215L73.355 26.5281H71.1049ZM81.6884 28.1086L78.4653 21.8444H76.5795V29.9944H77.9168V23.8515L81.14 29.9944H83.0258V21.8444H81.6884V28.1086ZM108.328 28.7783H104.983V26.5281H107.415V25.3107H104.983V23.0606H108.024V21.8444H103.583V29.9944H108.328V28.7783ZM95.4939 21.8444H95.2508V28.1696L92.0277 21.8444H90.1419V28.7783H85.8847V26.5281H88.3779V25.3107H85.8847V23.0606H88.9257V21.8444H84.4851V29.9944H91.4792V23.7912L94.7037 29.9944H96.5882V23.0606H99.0827V29.9944H100.481V23.0606H102.915L102.854 21.8444H95.4939ZM58.1499 25.9194C58.5764 25.4942 58.9408 24.9464 58.9408 24.1555C58.9408 23.4256 58.5764 22.8181 58.1499 22.4531C57.6637 22.0266 56.9947 21.8444 55.7785 21.8444H53.4675V28.7783H49.1494V26.5281H51.6432V25.3107H49.1494V23.0606H52.1904V21.8444H47.7504V29.9944H54.8664V26.5281H55.5354C56.2051 27.5621 57.6034 29.9944 57.6034 29.9944H59.2461L57.0556 26.4056C57.5425 26.3447 57.8465 26.1625 58.1499 25.9194ZM54.8664 25.3729V23.0606H56.0216C57.1178 23.0606 57.5425 23.4871 57.5425 24.1555C57.5425 24.9464 57.1172 25.3729 56.0216 25.3729H54.8664ZM69.4634 13.9985H70.1921C70.8008 14.9715 72.1991 17.4051 72.1991 17.4051H73.8418L71.6526 13.8766C72.1388 13.7554 72.5045 13.5726 72.7476 13.3294C73.1728 12.9645 73.5384 12.3564 73.5384 11.6265C73.5384 10.8362 73.2338 10.2884 72.7476 9.92346C72.2601 9.49755 71.5923 9.31538 70.4365 9.31538H68.0638V16.2492H63.7457V13.9382H66.2402V12.7823H63.7457V10.4712H66.8477V9.31602H62.4083V17.4057H69.4634V13.9985ZM69.4634 12.7214V10.4712H70.6796C71.7136 10.4712 72.1388 10.8971 72.1388 11.6265C72.1388 12.4173 71.7136 12.7823 70.6796 12.7823H69.4634V12.7214ZM46.1083 22.4531C45.6215 22.0266 44.9525 21.8444 43.7966 21.8444H41.4246V29.9944H42.8236V26.6494H43.7966C44.9525 26.6494 45.6215 26.4672 46.1083 26.0407C46.5336 25.6154 46.8986 25.0067 46.8986 24.2158C46.9029 23.8822 46.8344 23.5517 46.6979 23.2473C46.5614 22.9429 46.3602 22.6719 46.1083 22.4531ZM43.9794 25.4339H42.8236V23.0612H43.9794C45.0744 23.0612 45.5003 23.5487 45.5003 24.2164C45.5003 24.9464 45.0134 25.4339 43.9794 25.4339ZM61.4962 15.0934C61.4962 13.9382 60.7663 13.2082 59.3673 12.6604C58.2724 12.2955 57.7246 11.9914 57.7246 11.3224C57.7246 10.8356 58.2121 10.2884 59.2455 10.2884C59.9138 10.2884 60.6438 10.5315 60.9478 10.7143V9.55849C60.6438 9.37632 59.9138 9.19351 59.2455 9.19351C57.4815 9.19351 56.3257 10.1666 56.3257 11.4436C56.3257 12.6604 57.2384 13.3288 58.5758 13.8157C59.6098 14.1806 60.096 14.5456 60.096 15.2146C60.096 15.8836 59.4886 16.3705 58.5155 16.3705C57.7856 16.3705 56.8119 16.1267 56.3263 15.7618V17.0388C56.7516 17.2819 57.6034 17.5263 58.4552 17.5263C60.5232 17.5263 61.4962 16.3711 61.4962 15.0934ZM109.301 28.2908C109.301 27.5012 109.909 26.8925 110.699 26.8925C111.49 26.8925 112.099 27.5012 112.099 28.2908C112.102 28.4754 112.067 28.6588 111.998 28.8299C111.929 29.0011 111.826 29.1566 111.695 29.2872C111.565 29.4177 111.409 29.5207 111.238 29.59C111.067 29.6593 110.884 29.6934 110.699 29.6904C109.909 29.691 109.301 29.0823 109.301 28.2908ZM110.699 29.9944C111.612 29.9944 112.403 29.2645 112.403 28.2908C112.403 27.3171 111.612 26.5884 110.699 26.5884C109.786 26.5884 108.997 27.3171 108.997 28.2908C108.997 29.2645 109.787 29.9944 110.699 29.9944ZM110.335 28.4127H110.699L111.187 29.2645H111.551L110.942 28.4127C111.247 28.3517 111.49 28.2305 111.49 27.8662C111.49 27.5018 111.247 27.3184 110.76 27.3184H110.031V29.2645H110.335L110.335 28.4127ZM110.335 28.1696V27.5621H110.76C110.942 27.5621 111.187 27.6231 111.187 27.8662C111.187 28.1702 110.942 28.1702 110.699 28.1702L110.335 28.1696Z" fill="black"/>
</g>
<defs>
<clipPath id="clip0_4001_12938">
<rect width="111.533" height="30" fill="white" transform="translate(0.848877)"/>
</clipPath>
</defs>
</svg>
