<svg width="124" height="16" viewBox="0 0 124 16" fill="none" xmlns="http://www.w3.org/2000/svg">
<g clip-path="url(#clip0_4001_12941)">
<path d="M61.4568 6.4321H53.7037V0.481481H51.358V15.5926H53.7037V8.4321H61.4568V15.5926H63.7778V0.481481H61.4568M38.5802 0.432099C37.7284 0.407407 36 0.407407 34.4691 0.407407V15.5802H36.8395V9.82716C37.4321 9.82716 38.6543 9.77778 39.642 9.75309C41.0247 9.72839 44.6296 9.03704 44.6049 4.87654C44.642 0.185185 39.4444 0.432099 38.5802 0.432099ZM38.4568 7.81481H36.8889V2.34568H38.2222C38.8395 2.34568 42.4815 2.07407 42.5926 4.90123C42.7407 7.67901 39.8642 7.81481 38.4568 7.81481ZM16.7037 0.407407L16.7284 15.5802H26.2469V13.6049H19.0988V8.45679H24.1605C24.1605 8.02469 24.1358 7.39506 24.1605 6.5679H19.0988V2.4321H26.2469C26.2222 1.23457 26.2469 0.407407 26.2469 0.407407H16.7037ZM2.8642 4.11111C2.8642 1.62963 6.14815 1.53086 8.08642 3.12346C8.75309 1.20988 8.80247 1.07407 8.80247 1.07407C3.14815 -1.64198 0.567904 1.95062 0.567904 4.24691C0.567904 9.74074 8.35803 8.5679 7.23457 12.4321C6.83951 13.8395 4.33334 14.642 1.44445 12.8889C1.23457 13.4815 0.888892 14.1975 0.543213 14.9136C4.35803 16.9136 9.30865 15.9506 9.46914 11.8272C9.69136 6.64198 2.8642 7.01235 2.8642 4.11111ZM102.914 4.66667C102.568 0.160494 98.1975 0.506173 97.2346 0.45679C96.4321 0.432099 94.7284 0.407407 93.2593 0.407407V15.5556H95.6296V9.18518C96.4321 9.18518 96.6914 9.18518 97.9012 9.1358L102.222 15.5556H105.099L100.321 8.74074C101.605 8.2716 103.099 7.17284 102.914 4.66667ZM97.0988 7.40741C96.5679 7.40741 96.1605 7.40741 95.6296 7.38272V2.25926H96.8765C97.4691 2.25926 100.58 2.07407 100.852 4.55556C101.185 7.49383 97.7407 7.40741 97.0988 7.40741ZM118.556 0.432099H115.815L110.852 15.6049H113.198C113.938 12.8642 114.185 12.0864 114.185 12.0864L120.321 12.0617C121.037 14.0864 121.568 15.6296 121.568 15.6296H124L118.556 0.432099ZM114.728 10.3457L117.123 2.85185H117.148L119.654 10.321L114.728 10.3457ZM78.4938 0C73.6667 0 70.5185 3.5679 70.5185 8C70.5185 12.4321 73.6667 16 78.4938 16C83.321 16 86.4691 12.4321 86.4691 8C86.4691 3.5679 83.321 0 78.4938 0ZM78.4938 13.8148C74.9506 13.8148 72.9506 11.2346 72.9506 8C72.9506 4.80247 74.9506 2.18519 78.4938 2.18519C82.0123 2.18519 84.037 4.76543 84.037 8C84.037 11.1975 82.037 13.8148 78.4938 13.8148Z" fill="black"/>
</g>
<defs>
<clipPath id="clip0_4001_12941">
<rect width="123.457" height="16" fill="white" transform="translate(0.543213)"/>
</clipPath>
</defs>
</svg>
