<svg width="58" height="24" viewBox="0 0 58 24" fill="none" xmlns="http://www.w3.org/2000/svg">
<path d="M20.8065 8.83456C21.8767 5.98156 22.9471 3.12864 24.0173 0.275577C24.047 0.19657 24.0921 0.121141 24.0783 0.0262985C24.0301 -0.00253884 23.9752 0.00370206 23.9224 0.00370206C22.1693 0.00333019 20.4162 0.00520863 18.663 2.36253e-06C18.5189 -0.000430367 18.4558 0.0585776 18.4112 0.180675C18.2569 0.604066 18.0985 1.02602 17.9402 1.44795C17.1175 3.63996 16.2945 5.83188 15.4712 8.02373C15.1405 8.90408 14.8088 9.78407 14.4775 10.6642C14.4585 10.6624 14.4395 10.6606 14.4205 10.6588C14.429 10.4692 14.4343 10.2795 14.4466 10.0902C14.4822 9.54875 14.5223 9.0077 14.5573 8.4663C14.5837 8.05627 14.6033 7.64574 14.6292 7.23568C14.6645 6.67891 14.7035 6.12242 14.7397 5.56574C14.766 5.16328 14.7894 4.7606 14.8158 4.35818C14.8527 3.79363 14.8908 3.22916 14.9293 2.66473C14.9594 2.22347 14.9915 1.78231 15.0217 1.34111C15.0466 0.977254 15.0736 0.613524 15.0928 0.24945C15.1053 0.0119633 15.0943 0.00372771 14.8486 0.00361953C13.002 0.00295691 11.1554 0.00295831 9.30877 0.00370206C9.1005 0.0037832 9.09911 0.00595243 9.0253 0.202209C8.72416 1.0026 8.42374 1.80326 8.12348 2.60395C6.26701 7.55405 4.41062 12.5041 2.55422 17.4542C1.76806 19.5506 0.981909 21.647 0.196181 23.7435C0.106322 23.9833 0.114344 23.9944 0.362014 23.9995C0.408742 24.0004 0.455545 23.9998 0.50226 23.9998C1.18793 23.9998 1.87359 23.9998 2.55926 23.9998C3.54099 23.9998 4.52273 24.0003 5.50448 23.9993C5.74018 23.999 5.7403 23.9966 5.82208 23.778C5.94736 23.4431 6.07264 23.1081 6.19769 22.7731C7.32611 19.7504 8.45431 16.7276 9.58388 13.7055C9.60929 13.6376 9.62584 13.5603 9.69825 13.4986C9.73329 13.5926 9.72303 13.6691 9.71762 13.7449C9.69505 14.0618 9.67047 14.3784 9.64969 14.6954C9.62387 15.0899 9.60325 15.4848 9.57641 15.8793C9.53963 16.4207 9.49737 16.9617 9.46063 17.5031C9.42385 18.0447 9.39064 18.5866 9.35655 19.1284C9.32882 19.5691 9.30254 20.0098 9.27468 20.4504C9.2492 20.8532 9.22274 21.2558 9.19617 21.6584C9.1763 21.9596 9.15482 22.2606 9.1355 22.5617C9.10962 22.9645 9.08858 23.3677 9.05857 23.7702C9.04251 23.9861 9.04221 23.9984 9.25667 23.9986C11.1422 24.0001 13.0278 23.9999 14.9134 23.9988C15.1197 23.9987 15.1213 23.9948 15.1961 23.7955C15.6493 22.5872 16.1014 21.3785 16.5546 20.1702C17.9717 16.3916 19.3891 12.6131 20.8065 8.83456Z" fill="black"/>
<path d="M30.1315 1.07676C30.2595 0.735787 30.3822 0.392801 30.5124 0.0371857C30.4357 -0.001672 30.3804 0.00366957 30.3263 0.00362224C28.5814 0.00327065 26.8366 0.00295957 25.0917 0.00381826C24.8941 0.00390616 24.8923 0.00646878 24.8233 0.189561C24.6752 0.582093 24.5297 0.975579 24.3823 1.36838C23.4355 3.89215 22.4885 6.4159 21.5415 8.93956C20.3943 11.997 19.2464 15.0541 18.0997 18.1118C17.3927 19.9969 16.6873 21.8826 15.9815 23.7682C15.9021 23.9805 15.9115 23.994 16.128 23.9997C16.1358 23.9998 16.1436 23.9997 16.1514 23.9997C17.8651 23.9997 19.5788 24 21.2925 23.9993C21.5335 23.9992 21.5342 23.9971 21.6228 23.7606C21.7947 23.3021 21.9651 22.8432 22.137 22.3847C23.5804 18.534 25.0232 14.6831 26.4678 10.8328C27.6881 7.58042 28.9107 4.32895 30.1315 1.07676Z" fill="black"/>
<path d="M57.5462 0.00379296C57.5151 0.00223108 57.4839 0.00322552 57.4527 0.00322552C51.8584 0.00322552 46.264 0.00379359 40.6697 0.000122149C40.5305 4.10127e-05 40.3988 0.0623476 40.3106 0.169935C39.2754 1.43238 38.2359 2.69123 37.1968 3.95054C36.3647 4.95909 35.532 5.96723 34.6977 6.97399C34.6535 7.02732 34.6204 7.10149 34.4974 7.1348C34.957 5.92452 35.4019 4.74958 35.8492 3.57555C36.2988 2.39557 36.7575 1.21894 37.2006 0.0159898C37.1 0.0102629 37.0384 0.00371122 36.9768 0.00367741C35.2237 0.00314326 33.4706 0.00296734 31.7175 0.00362995C31.498 0.00371109 31.4979 0.00593 31.4196 0.216547C30.4744 2.75978 29.5301 5.30333 28.5837 7.84612C27.5694 10.5713 26.552 13.2953 25.538 16.0205C24.7898 18.0313 24.0449 20.0433 23.2984 22.0547C23.0793 22.6451 22.8588 23.235 22.6415 23.8261C22.5885 23.9702 22.6025 23.987 22.7504 23.9985C22.7814 24.0008 22.8127 23.9997 22.8438 23.9997C24.5502 23.9997 26.2566 24 27.9629 23.9994C28.2187 23.9993 28.2185 23.9972 28.3036 23.7727C29.0943 21.6862 29.8846 19.5996 30.6761 17.5134C31.0871 16.4302 31.4999 15.3478 31.9131 14.2655C31.9414 14.1915 31.9523 14.1045 32.0671 14.0214C32.0671 14.2129 32.0706 14.3646 32.0664 14.5159C32.0567 14.873 32.0932 15.2288 32.09 15.5864C32.0877 15.841 32.1124 16.0972 32.112 16.3541C32.1114 16.7338 32.1336 17.1136 32.1468 17.4933C32.1541 17.7032 32.1705 17.9124 32.1608 18.1232C32.1445 18.4723 32.1865 18.8205 32.1817 19.1708C32.1781 19.4326 32.2073 19.6966 32.205 19.9613C32.2021 20.3026 32.2269 20.6438 32.2303 20.9856C32.2328 21.2411 32.2569 21.4965 32.2516 21.7537C32.2446 22.0949 32.2749 22.4359 32.2762 22.7779C32.2771 23.0328 32.3099 23.2885 32.2976 23.5454C32.2927 23.646 32.3064 23.7473 32.3084 23.8483C32.3106 23.9586 32.3727 23.9982 32.4737 23.9979C32.536 23.9977 32.5983 24.0001 32.6606 23.9997C33.2787 23.9951 47.3576 23.9977 49.2291 23.9981C49.3549 23.9981 49.4651 23.9246 49.5142 23.8087C49.8433 23.0313 51.079 20.1086 51.2155 19.7284C51.3566 19.3357 51.3621 19.3715 50.965 19.3712C49.002 19.3696 47.0389 19.3709 45.0759 19.3691C44.9705 19.369 44.858 19.3964 44.7617 19.3297C44.7604 19.2343 44.8011 19.1568 44.8305 19.078C45.3302 17.7376 45.832 16.3981 46.3334 15.0583C46.4997 14.6142 46.6657 14.17 46.8324 13.726C46.8868 13.5812 46.9934 13.5082 47.1522 13.5069C47.1989 13.5064 47.2457 13.5068 47.2924 13.5068C48.9052 13.5066 50.5179 13.5066 52.1306 13.506C52.3641 13.5059 52.3639 13.5043 52.4493 13.2909C52.4579 13.2693 52.4711 13.2494 52.4793 13.2277C52.9486 11.9767 53.419 10.726 53.8844 9.47357C53.9291 9.35297 54.0017 9.23683 53.9941 9.07314H48.6236C48.6083 8.94141 48.6608 8.85178 48.6951 8.75873C48.9262 8.13149 49.159 7.5049 49.3912 6.87806C49.6665 6.13494 50.197 4.58217 50.3588 4.10725C50.3877 4.0222 50.4671 3.96615 50.557 3.96607L56.2162 3.95951C56.3635 3.57664 56.6737 2.77423 56.818 2.39018C57.0966 1.64869 57.3828 0.909833 57.6597 0.167547C57.713 0.0247063 57.6996 0.0115212 57.5462 0.00379296ZM46.0731 0.720035C43.3782 7.91162 40.6829 15.103 37.9869 22.2941C37.9818 22.3077 37.968 22.3186 37.9564 22.3286C37.9521 22.3323 37.9427 22.3302 37.9193 22.332C37.8922 22.2629 37.9026 22.1878 37.9058 22.1135C37.9085 22.0515 37.9132 21.9893 37.911 21.9274C37.8863 21.2293 37.8591 20.5312 37.8356 19.8329C37.8182 19.3136 37.8058 18.7941 37.7904 18.2747C37.7739 17.7165 37.7556 17.1582 37.7395 16.6C37.7247 16.0882 37.7129 15.5764 37.698 15.0646C37.6815 14.4986 37.662 13.9327 37.6456 13.3667C37.6319 12.8937 37.622 12.4207 37.6082 11.9478C37.5907 11.3507 37.5704 10.7537 37.5528 10.1566C37.5476 9.98162 37.5939 9.83574 37.7222 9.69658C38.7297 8.60444 39.7291 7.5048 40.7295 6.40608C41.6198 5.42819 42.5075 4.44794 43.3977 3.4699C44.2669 2.51489 45.1378 1.56134 46.008 0.607207C46.034 0.57864 46.057 0.546064 46.0981 0.536463C46.0979 0.5396 46.0977 0.541398 46.0976 0.543021C46.0989 0.537578 46.1031 0.529857 46.1139 0.542426C46.1184 0.547781 46.1223 0.557665 46.1205 0.563791C46.1056 0.616158 46.0921 0.669155 46.0731 0.720035Z" fill="black"/>
</svg>
