<svg width="115" height="28" viewBox="0 0 115 28" fill="none" xmlns="http://www.w3.org/2000/svg">
<g clip-path="url(#clip0_4001_12908)">
<path d="M45.5425 10.0927H49.1614V21.4599H45.5425V10.0927Z" fill="black"/>
<mask id="mask0_4001_12908" style="mask-type:luminance" maskUnits="userSpaceOnUse" x="0" y="0" width="115" height="28">
<path d="M0.406982 0H114.983V28H0.406982V0Z" fill="white"/>
</mask>
<g mask="url(#mask0_4001_12908)">
<path d="M49.9172 10.0927H53.4029V11.6468H53.4694C54.3131 10.4256 55.401 9.75968 56.9774 9.75968C59.4639 9.75968 60.9292 11.5358 60.9292 14.0668V21.4599H57.3104V14.7995C57.3104 13.6005 56.7109 12.779 55.5343 12.779C54.3354 12.779 53.5361 13.7781 53.5361 15.1768V21.4599H49.9172V10.0927Z" fill="black"/>
<path d="M49.5227 7.05147C49.5227 5.85251 48.5508 4.88068 47.3519 4.88068C46.1531 4.88068 45.1812 5.85251 45.1812 7.05147C45.1812 8.25031 46.1531 9.22214 47.3519 9.22214C48.5508 9.22214 49.5227 8.25031 49.5227 7.05147Z" fill="black"/>
<path d="M86.3812 9.92848C86.278 9.91919 86.1596 9.91504 86.0211 9.91504C84.6446 9.91504 83.7122 10.5145 82.9128 11.8688H82.8463V10.0927H79.3828V21.4598H83.0016V16.3535C83.0016 13.9875 84.3119 12.8911 86.3812 13.0824V9.92848Z" fill="black"/>
<path d="M104.14 14.2887C102.697 14.0223 101.409 13.9113 101.409 13.1121C101.409 12.4016 102.098 12.0686 102.986 12.0686C103.985 12.0686 104.673 12.3794 104.806 13.4007H108.137C107.959 11.1584 106.227 9.75961 103.008 9.75961C100.322 9.75961 98.1014 11.0029 98.1014 13.4007C98.1014 16.0648 100.211 16.5977 102.187 16.9307C103.696 17.1972 105.073 17.3082 105.073 18.3294C105.073 19.0621 104.385 19.4617 103.297 19.4617C102.205 19.4617 101.483 18.9999 101.262 18.0631H97.8137C98.0675 20.3998 100.119 21.8151 103.319 21.8151C106.294 21.8151 108.492 20.5274 108.492 18.0409C108.492 15.1324 106.138 14.6218 104.14 14.2887Z" fill="black"/>
<path d="M91.995 12.335C93.1717 12.335 94.0153 13.2008 94.1485 14.5552H89.6638C89.908 13.2008 90.6185 12.335 91.995 12.335ZM92.1948 19.1952C90.7072 19.1952 89.8636 18.2406 89.6415 16.7087H97.8118C97.834 14.3998 97.1681 12.4238 95.8136 11.1806C94.8368 10.2925 93.5491 9.75963 91.9283 9.75963C88.4649 9.75963 86.0894 12.3571 86.0894 15.7541C86.0894 19.1952 88.3983 21.7929 92.1503 21.7929C93.5934 21.7929 94.748 21.4155 95.7027 20.7494C96.7017 20.0612 97.3678 19.0843 97.6119 18.0631H94.0819C93.771 18.7735 93.1495 19.1952 92.1948 19.1952Z" fill="black"/>
<path d="M114.865 18.7794C114.698 18.786 114.473 18.7957 114.266 18.7957C113.489 18.7957 113 18.5736 113 17.6856V12.3572H114.865V10.0926H113V6.49598H109.47V10.0926H108.359V12.3572H109.47V18.4626C109.47 20.9049 110.98 21.593 113.089 21.593C113.894 21.593 114.502 21.5328 114.865 21.4619V18.7794Z" fill="black"/>
<path d="M67.3917 18.7845C67.2474 18.7901 67.0807 18.7957 66.925 18.7957C66.1481 18.7957 65.6595 18.5736 65.6595 17.6856V12.3572H67.3917V10.0926H65.6595V6.49598H62.1295V10.0926H60.9524V12.3572H62.1295V18.4626C62.1295 20.9049 63.6392 21.593 65.7483 21.593C66.462 21.593 67.0208 21.5455 67.3917 21.4854V18.7845Z" fill="black"/>
<path d="M75.2743 14.5552C75.1411 13.2009 74.2973 12.3349 73.1206 12.3349C71.7441 12.3349 71.0337 13.2009 70.7895 14.5552H75.2743ZM67.2151 15.754C67.2151 12.3572 69.5906 9.75968 73.0541 9.75968C74.6747 9.75968 75.9625 10.2925 76.9394 11.1805C78.2937 12.4238 78.9596 14.3997 78.9375 16.7087H70.7674C70.9893 18.2405 71.833 19.1952 73.3205 19.1952C74.2751 19.1952 74.8968 18.7734 75.2075 18.063H78.7376C78.4934 19.0842 77.8274 20.0611 76.8283 20.7495C75.8737 21.4154 74.7192 21.7928 73.2761 21.7928C69.524 21.7928 67.2151 19.1952 67.2151 15.754Z" fill="black"/>
<path d="M39.258 13.0455C40.6789 13.0455 41.4781 12.2018 41.4781 10.9362C41.4781 9.67083 40.6566 8.89378 39.258 8.89378H36.4826V13.0455H39.258ZM32.8188 5.58574H39.1032C41.0346 5.58574 42.4556 6.11853 43.4324 7.05104C44.4537 8.00562 45.031 9.36003 45.031 10.9585C45.031 14.0001 42.9218 16.1537 39.6581 16.1537H36.4826V21.4598H32.8188V5.58574Z" fill="black"/>
<path d="M27.8511 14C27.8511 21.5459 21.7339 27.6631 14.188 27.6631C6.64212 27.6631 0.524902 21.5459 0.524902 14C0.524902 6.45401 6.64212 0.33691 14.188 0.33691C21.7339 0.33691 27.8511 6.45401 27.8511 14Z" fill="white"/>
<path d="M14.1878 0.336666C6.64187 0.336666 0.524658 6.45388 0.524658 13.9998C0.524658 19.7882 4.12602 24.7364 9.20858 26.7272C9.08919 25.6462 8.98122 23.9837 9.25595 22.8035C9.50426 21.7372 10.8581 16.0121 10.8581 16.0121C10.8581 16.0121 10.4494 15.1936 10.4494 13.9835C10.4494 12.0837 11.5506 10.6653 12.9217 10.6653C14.0874 10.6653 14.6504 11.5405 14.6504 12.5899C14.6504 13.7622 13.9041 15.5149 13.5189 17.1391C13.197 18.499 14.2009 19.6081 15.5422 19.6081C17.9706 19.6081 19.8373 17.0475 19.8373 13.3514C19.8373 10.08 17.4866 7.79273 14.1301 7.79273C10.2425 7.79273 7.96056 10.7086 7.96056 13.7221C7.96056 14.8964 8.41293 16.1557 8.97741 16.8402C9.08907 16.9755 9.10543 17.094 9.07216 17.2321C8.96845 17.6636 8.73795 18.5917 8.69271 18.7816C8.63312 19.0317 8.49469 19.0848 8.23575 18.9643C6.52931 18.17 5.4624 15.6751 5.4624 13.6712C5.4624 9.36118 8.59392 5.40298 14.4902 5.40298C19.2299 5.40298 22.9132 8.78046 22.9132 13.2942C22.9132 18.003 19.9442 21.7926 15.8233 21.7926C14.4388 21.7926 13.1372 21.0734 12.6917 20.2237C12.6917 20.2237 12.0066 22.8324 11.8405 23.4717C11.532 24.6585 10.6993 26.1461 10.1423 27.0536C11.4207 27.4494 12.7792 27.6629 14.1878 27.6629C21.7338 27.6629 27.851 21.5457 27.851 13.9998C27.851 6.45388 21.7338 0.336666 14.1878 0.336666Z" fill="black"/>
</g>
</g>
<defs>
<clipPath id="clip0_4001_12908">
<rect width="114.576" height="28" fill="white" transform="translate(0.406982)"/>
</clipPath>
</defs>
</svg>
